<mxfile host="app.diagrams.net" modified="2023-04-12T03:38:37.961Z" agent="Mozilla/5.0 (Windows NT 10.0; Win64; x64) AppleWebKit/537.36 (KHTML, like Gecko) Chrome/112.0.0.0 Safari/537.36 Edg/112.0.1722.34" etag="kv-Etk9JQeOl_9wc8b1A" version="21.1.5" type="github">
  <diagram name="第 1 页" id="-6pHBy3T7X8AWCMXz0UJ">
    <mxGraphModel dx="1767" dy="758" grid="0" gridSize="10" guides="1" tooltips="1" connect="1" arrows="1" fold="1" page="1" pageScale="1" pageWidth="827" pageHeight="1169" math="0" shadow="0">
      <root>
        <mxCell id="0" />
        <mxCell id="1" parent="0" />
        <mxCell id="fk76nEaUQplsYMOn4d1s-18" value="" style="rounded=0;whiteSpace=wrap;html=1;fillColor=none;" parent="1" vertex="1">
          <mxGeometry x="20" y="1191" width="330" height="476" as="geometry" />
        </mxCell>
        <mxCell id="CREifestwWJjeIn1SrWn-1" value="&lt;b&gt;&lt;font style=&quot;font-size: 16px;&quot;&gt;Refuse collection point （RCP）design decision model&lt;/font&gt;&lt;/b&gt;" style="rounded=1;whiteSpace=wrap;html=1;fillColor=#dae8fc;strokeColor=#6c8ebf;" parent="1" vertex="1">
          <mxGeometry x="260" y="243" width="290" height="60" as="geometry" />
        </mxCell>
        <mxCell id="-MJLhog0sd4CM29XFd1n-28" style="edgeStyle=orthogonalEdgeStyle;rounded=0;orthogonalLoop=1;jettySize=auto;html=1;exitX=1;exitY=0.5;exitDx=0;exitDy=0;entryX=0.5;entryY=0;entryDx=0;entryDy=0;" parent="1" source="-MJLhog0sd4CM29XFd1n-1" target="-MJLhog0sd4CM29XFd1n-30" edge="1">
          <mxGeometry relative="1" as="geometry">
            <mxPoint x="720" y="563" as="targetPoint" />
          </mxGeometry>
        </mxCell>
        <mxCell id="-MJLhog0sd4CM29XFd1n-1" value="Residential Locations" style="rounded=0;whiteSpace=wrap;html=1;fillColor=#dae8fc;strokeColor=#6c8ebf;" parent="1" vertex="1">
          <mxGeometry x="10" y="363" width="120" height="60" as="geometry" />
        </mxCell>
        <mxCell id="-MJLhog0sd4CM29XFd1n-2" value="road" style="rounded=0;whiteSpace=wrap;html=1;fillColor=#dae8fc;strokeColor=#6c8ebf;" parent="1" vertex="1">
          <mxGeometry x="10" y="467" width="120" height="60" as="geometry" />
        </mxCell>
        <mxCell id="-MJLhog0sd4CM29XFd1n-38" style="edgeStyle=orthogonalEdgeStyle;rounded=0;orthogonalLoop=1;jettySize=auto;html=1;exitX=1;exitY=0.5;exitDx=0;exitDy=0;entryX=0;entryY=0.5;entryDx=0;entryDy=0;" parent="1" source="-MJLhog0sd4CM29XFd1n-5" target="-MJLhog0sd4CM29XFd1n-20" edge="1">
          <mxGeometry relative="1" as="geometry" />
        </mxCell>
        <mxCell id="-MJLhog0sd4CM29XFd1n-5" value="Waste Management Facilities" style="rounded=0;whiteSpace=wrap;html=1;fillColor=#dae8fc;strokeColor=#6c8ebf;" parent="1" vertex="1">
          <mxGeometry x="260" y="737" width="120" height="60" as="geometry" />
        </mxCell>
        <mxCell id="-MJLhog0sd4CM29XFd1n-6" value="Terrain" style="rounded=0;whiteSpace=wrap;html=1;fillColor=#dae8fc;strokeColor=#6c8ebf;" parent="1" vertex="1">
          <mxGeometry x="10" y="737" width="120" height="60" as="geometry" />
        </mxCell>
        <mxCell id="-MJLhog0sd4CM29XFd1n-7" value="MTR station" style="rounded=0;whiteSpace=wrap;html=1;fillColor=#dae8fc;strokeColor=#6c8ebf;" parent="1" vertex="1">
          <mxGeometry x="10" y="637" width="120" height="60" as="geometry" />
        </mxCell>
        <mxCell id="-MJLhog0sd4CM29XFd1n-8" value="facility" style="rounded=0;whiteSpace=wrap;html=1;fillColor=#dae8fc;strokeColor=#6c8ebf;" parent="1" vertex="1">
          <mxGeometry x="10" y="552" width="120" height="60" as="geometry" />
        </mxCell>
        <mxCell id="-MJLhog0sd4CM29XFd1n-27" style="edgeStyle=orthogonalEdgeStyle;rounded=0;orthogonalLoop=1;jettySize=auto;html=1;exitX=1;exitY=0.5;exitDx=0;exitDy=0;entryX=0;entryY=0.5;entryDx=0;entryDy=0;" parent="1" source="-MJLhog0sd4CM29XFd1n-9" target="-MJLhog0sd4CM29XFd1n-23" edge="1">
          <mxGeometry relative="1" as="geometry" />
        </mxCell>
        <mxCell id="-MJLhog0sd4CM29XFd1n-9" value="RCP Site Selection Model" style="shape=process;whiteSpace=wrap;html=1;backgroundOutline=1;fillColor=#f5f5f5;strokeColor=#666666;fontColor=#333333;" parent="1" vertex="1">
          <mxGeometry x="260" y="552" width="120" height="60" as="geometry" />
        </mxCell>
        <mxCell id="-MJLhog0sd4CM29XFd1n-14" value="" style="endArrow=classic;html=1;rounded=0;exitX=1;exitY=0.5;exitDx=0;exitDy=0;entryX=0;entryY=0.5;entryDx=0;entryDy=0;" parent="1" source="-MJLhog0sd4CM29XFd1n-1" target="-MJLhog0sd4CM29XFd1n-9" edge="1">
          <mxGeometry width="50" height="50" relative="1" as="geometry">
            <mxPoint x="430" y="497" as="sourcePoint" />
            <mxPoint x="480" y="447" as="targetPoint" />
          </mxGeometry>
        </mxCell>
        <mxCell id="-MJLhog0sd4CM29XFd1n-15" value="" style="endArrow=classic;html=1;rounded=0;exitX=1;exitY=0.5;exitDx=0;exitDy=0;entryX=0;entryY=0.5;entryDx=0;entryDy=0;" parent="1" source="-MJLhog0sd4CM29XFd1n-2" target="-MJLhog0sd4CM29XFd1n-9" edge="1">
          <mxGeometry width="50" height="50" relative="1" as="geometry">
            <mxPoint x="140" y="417" as="sourcePoint" />
            <mxPoint x="250" y="537" as="targetPoint" />
          </mxGeometry>
        </mxCell>
        <mxCell id="-MJLhog0sd4CM29XFd1n-16" value="" style="endArrow=classic;html=1;rounded=0;exitX=1;exitY=0.5;exitDx=0;exitDy=0;entryX=0;entryY=0.5;entryDx=0;entryDy=0;" parent="1" source="-MJLhog0sd4CM29XFd1n-8" target="-MJLhog0sd4CM29XFd1n-9" edge="1">
          <mxGeometry width="50" height="50" relative="1" as="geometry">
            <mxPoint x="140" y="507" as="sourcePoint" />
            <mxPoint x="250" y="577" as="targetPoint" />
          </mxGeometry>
        </mxCell>
        <mxCell id="-MJLhog0sd4CM29XFd1n-17" value="" style="endArrow=classic;html=1;rounded=0;exitX=1;exitY=0.5;exitDx=0;exitDy=0;entryX=0;entryY=0.5;entryDx=0;entryDy=0;" parent="1" source="-MJLhog0sd4CM29XFd1n-7" target="-MJLhog0sd4CM29XFd1n-9" edge="1">
          <mxGeometry width="50" height="50" relative="1" as="geometry">
            <mxPoint x="140" y="592" as="sourcePoint" />
            <mxPoint x="260" y="547" as="targetPoint" />
          </mxGeometry>
        </mxCell>
        <mxCell id="-MJLhog0sd4CM29XFd1n-19" value="" style="endArrow=classic;html=1;rounded=0;exitX=1;exitY=0.5;exitDx=0;exitDy=0;entryX=0;entryY=0.5;entryDx=0;entryDy=0;" parent="1" source="-MJLhog0sd4CM29XFd1n-6" target="-MJLhog0sd4CM29XFd1n-9" edge="1">
          <mxGeometry width="50" height="50" relative="1" as="geometry">
            <mxPoint x="140" y="677" as="sourcePoint" />
            <mxPoint x="270" y="592" as="targetPoint" />
          </mxGeometry>
        </mxCell>
        <mxCell id="-MJLhog0sd4CM29XFd1n-39" style="edgeStyle=orthogonalEdgeStyle;rounded=0;orthogonalLoop=1;jettySize=auto;html=1;exitX=0.5;exitY=1;exitDx=0;exitDy=0;entryX=0.75;entryY=0;entryDx=0;entryDy=0;" parent="1" source="-MJLhog0sd4CM29XFd1n-20" target="-MJLhog0sd4CM29XFd1n-40" edge="1">
          <mxGeometry relative="1" as="geometry">
            <mxPoint x="539.5" y="853" as="targetPoint" />
            <Array as="points" />
          </mxGeometry>
        </mxCell>
        <mxCell id="-MJLhog0sd4CM29XFd1n-20" value="TSP model" style="shape=process;whiteSpace=wrap;html=1;backgroundOutline=1;fillColor=#f5f5f5;strokeColor=#666666;fontColor=#333333;" parent="1" vertex="1">
          <mxGeometry x="470" y="737" width="140" height="60" as="geometry" />
        </mxCell>
        <mxCell id="-MJLhog0sd4CM29XFd1n-23" value="" style="swimlane;horizontal=0;whiteSpace=wrap;html=1;fillColor=#1ba1e2;strokeColor=#006EAF;fontColor=#ffffff;" parent="1" vertex="1">
          <mxGeometry x="470" y="555" width="140" height="54" as="geometry" />
        </mxCell>
        <mxCell id="-MJLhog0sd4CM29XFd1n-29" style="edgeStyle=orthogonalEdgeStyle;rounded=0;orthogonalLoop=1;jettySize=auto;html=1;" parent="-MJLhog0sd4CM29XFd1n-23" source="-MJLhog0sd4CM29XFd1n-26" edge="1">
          <mxGeometry relative="1" as="geometry">
            <mxPoint x="230" y="27" as="targetPoint" />
          </mxGeometry>
        </mxCell>
        <mxCell id="-MJLhog0sd4CM29XFd1n-26" value="RCP suitable area" style="text;html=1;align=center;verticalAlign=middle;resizable=0;points=[];autosize=1;strokeColor=none;fillColor=none;" parent="-MJLhog0sd4CM29XFd1n-23" vertex="1">
          <mxGeometry x="20" y="12" width="120" height="30" as="geometry" />
        </mxCell>
        <mxCell id="-MJLhog0sd4CM29XFd1n-36" style="edgeStyle=orthogonalEdgeStyle;rounded=0;orthogonalLoop=1;jettySize=auto;html=1;exitX=0.5;exitY=1;exitDx=0;exitDy=0;entryX=0.5;entryY=0;entryDx=0;entryDy=0;" parent="1" source="-MJLhog0sd4CM29XFd1n-30" target="-MJLhog0sd4CM29XFd1n-32" edge="1">
          <mxGeometry relative="1" as="geometry" />
        </mxCell>
        <mxCell id="-MJLhog0sd4CM29XFd1n-30" value="position allocation&lt;br&gt;model" style="shape=process;whiteSpace=wrap;html=1;backgroundOutline=1;fillColor=#f5f5f5;strokeColor=#666666;fontColor=#333333;" parent="1" vertex="1">
          <mxGeometry x="697" y="555" width="120" height="60" as="geometry" />
        </mxCell>
        <mxCell id="-MJLhog0sd4CM29XFd1n-37" style="edgeStyle=orthogonalEdgeStyle;rounded=0;orthogonalLoop=1;jettySize=auto;html=1;exitX=0;exitY=0.5;exitDx=0;exitDy=0;" parent="1" source="-MJLhog0sd4CM29XFd1n-32" target="-MJLhog0sd4CM29XFd1n-20" edge="1">
          <mxGeometry relative="1" as="geometry" />
        </mxCell>
        <mxCell id="-MJLhog0sd4CM29XFd1n-43" style="edgeStyle=orthogonalEdgeStyle;rounded=0;orthogonalLoop=1;jettySize=auto;html=1;exitX=0.5;exitY=1;exitDx=0;exitDy=0;" parent="1" source="-MJLhog0sd4CM29XFd1n-32" edge="1">
          <mxGeometry relative="1" as="geometry">
            <mxPoint x="757" y="1000" as="targetPoint" />
          </mxGeometry>
        </mxCell>
        <mxCell id="-MJLhog0sd4CM29XFd1n-32" value="" style="swimlane;horizontal=0;whiteSpace=wrap;html=1;fillColor=#1ba1e2;strokeColor=#006EAF;fontColor=#ffffff;" parent="1" vertex="1">
          <mxGeometry x="697" y="740" width="120" height="54" as="geometry" />
        </mxCell>
        <mxCell id="-MJLhog0sd4CM29XFd1n-34" value="RCP" style="text;html=1;align=center;verticalAlign=middle;resizable=0;points=[];autosize=1;strokeColor=none;fillColor=none;" parent="-MJLhog0sd4CM29XFd1n-32" vertex="1">
          <mxGeometry x="50" y="12" width="50" height="30" as="geometry" />
        </mxCell>
        <mxCell id="-MJLhog0sd4CM29XFd1n-42" style="edgeStyle=orthogonalEdgeStyle;rounded=0;orthogonalLoop=1;jettySize=auto;html=1;exitX=0.5;exitY=1;exitDx=0;exitDy=0;" parent="1" source="-MJLhog0sd4CM29XFd1n-40" edge="1">
          <mxGeometry relative="1" as="geometry">
            <mxPoint x="460" y="1000" as="targetPoint" />
          </mxGeometry>
        </mxCell>
        <mxCell id="-MJLhog0sd4CM29XFd1n-40" value="" style="swimlane;horizontal=0;whiteSpace=wrap;html=1;fillColor=#1ba1e2;strokeColor=#006EAF;fontColor=#ffffff;" parent="1" vertex="1">
          <mxGeometry x="300" y="873" width="320" height="54" as="geometry" />
        </mxCell>
        <mxCell id="-MJLhog0sd4CM29XFd1n-41" value="&lt;font style=&quot;font-size: 17px;&quot;&gt;Refuse collection routes&lt;/font&gt;" style="text;html=1;align=center;verticalAlign=middle;resizable=0;points=[];autosize=1;strokeColor=none;fillColor=none;" parent="-MJLhog0sd4CM29XFd1n-40" vertex="1">
          <mxGeometry x="55" y="12" width="200" height="30" as="geometry" />
        </mxCell>
        <mxCell id="-MJLhog0sd4CM29XFd1n-44" value="" style="swimlane;horizontal=0;whiteSpace=wrap;html=1;fillColor=#1ba1e2;strokeColor=#006EAF;fontColor=#ffffff;" parent="1" vertex="1">
          <mxGeometry x="430" y="1000" width="370" height="64" as="geometry" />
        </mxCell>
        <mxCell id="-MJLhog0sd4CM29XFd1n-45" value="&lt;span style=&quot;font-size: 17px;&quot;&gt;Urban Refuse collection system design&lt;/span&gt;" style="text;html=1;align=center;verticalAlign=middle;resizable=0;points=[];autosize=1;strokeColor=none;fillColor=none;" parent="-MJLhog0sd4CM29XFd1n-44" vertex="1">
          <mxGeometry x="25" y="17" width="320" height="30" as="geometry" />
        </mxCell>
        <mxCell id="fk76nEaUQplsYMOn4d1s-16" value="meta 0&amp;nbsp;" style="rounded=0;whiteSpace=wrap;html=1;fillColor=#f8cecc;strokeColor=#b85450;" parent="1" vertex="1">
          <mxGeometry x="50" y="1217" width="120" height="60" as="geometry" />
        </mxCell>
        <mxCell id="fk76nEaUQplsYMOn4d1s-17" value="meta 1&amp;nbsp;" style="rounded=0;whiteSpace=wrap;html=1;fillColor=#f8cecc;strokeColor=#b85450;" parent="1" vertex="1">
          <mxGeometry x="200" y="1217" width="120" height="60" as="geometry" />
        </mxCell>
        <mxCell id="fk76nEaUQplsYMOn4d1s-19" value="branch page&amp;nbsp;" style="rounded=0;whiteSpace=wrap;html=1;fillColor=#dae8fc;strokeColor=#6c8ebf;" parent="1" vertex="1">
          <mxGeometry x="50" y="1307" width="120" height="60" as="geometry" />
        </mxCell>
        <mxCell id="fk76nEaUQplsYMOn4d1s-20" value="branch page" style="rounded=0;whiteSpace=wrap;html=1;fillColor=#dae8fc;strokeColor=#6c8ebf;" parent="1" vertex="1">
          <mxGeometry x="200" y="1307" width="120" height="60" as="geometry" />
        </mxCell>
        <mxCell id="fk76nEaUQplsYMOn4d1s-21" value="branch page" style="rounded=0;whiteSpace=wrap;html=1;fillColor=#dae8fc;strokeColor=#6c8ebf;" parent="1" vertex="1">
          <mxGeometry x="50" y="1399" width="120" height="60" as="geometry" />
        </mxCell>
        <mxCell id="fk76nEaUQplsYMOn4d1s-22" value="branch page" style="rounded=0;whiteSpace=wrap;html=1;fillColor=#dae8fc;strokeColor=#6c8ebf;" parent="1" vertex="1">
          <mxGeometry x="200" y="1399" width="120" height="60" as="geometry" />
        </mxCell>
        <mxCell id="fk76nEaUQplsYMOn4d1s-23" value="leaf page" style="rounded=0;whiteSpace=wrap;html=1;fillColor=#dae8fc;strokeColor=#6c8ebf;" parent="1" vertex="1">
          <mxGeometry x="200" y="1579" width="120" height="60" as="geometry" />
        </mxCell>
        <mxCell id="fk76nEaUQplsYMOn4d1s-24" value="leaf page&amp;nbsp;" style="rounded=0;whiteSpace=wrap;html=1;fillColor=#dae8fc;strokeColor=#6c8ebf;" parent="1" vertex="1">
          <mxGeometry x="50" y="1487" width="120" height="60" as="geometry" />
        </mxCell>
        <mxCell id="fk76nEaUQplsYMOn4d1s-25" value="leaf page" style="rounded=0;whiteSpace=wrap;html=1;fillColor=#dae8fc;strokeColor=#6c8ebf;" parent="1" vertex="1">
          <mxGeometry x="200" y="1487" width="120" height="60" as="geometry" />
        </mxCell>
        <mxCell id="fk76nEaUQplsYMOn4d1s-26" value="leaf page" style="rounded=0;whiteSpace=wrap;html=1;fillColor=#dae8fc;strokeColor=#6c8ebf;" parent="1" vertex="1">
          <mxGeometry x="50" y="1579" width="120" height="60" as="geometry" />
        </mxCell>
        <mxCell id="yM2souLgiS-9Ete5BA36-1" value="pgno | flag |&amp;nbsp; lower | upper | ptrs[ ]" style="rounded=0;whiteSpace=wrap;html=1;sketch=1;hachureGap=4;jiggle=2;curveFitting=1;fontFamily=Helvetica;fontSize=20;fillColor=#dae8fc;strokeColor=#6c8ebf;" vertex="1" parent="1">
          <mxGeometry x="6" y="1773" width="333" height="50" as="geometry" />
        </mxCell>
        <mxCell id="yM2souLgiS-9Ete5BA36-2" value="ptr" style="rounded=0;whiteSpace=wrap;html=1;sketch=1;hachureGap=4;jiggle=2;curveFitting=1;fontFamily=Helvetica;fontSize=20;fillColor=#d5e8d4;strokeColor=#82b366;" vertex="1" parent="1">
          <mxGeometry x="339" y="1773" width="414" height="49" as="geometry" />
        </mxCell>
        <mxCell id="yM2souLgiS-9Ete5BA36-5" value="page header" style="text;html=1;strokeColor=none;fillColor=none;align=center;verticalAlign=middle;whiteSpace=wrap;rounded=0;fontSize=20;fontFamily=Architects Daughter;" vertex="1" parent="1">
          <mxGeometry x="121" y="1727" width="146.5" height="30" as="geometry" />
        </mxCell>
        <mxCell id="yM2souLgiS-9Ete5BA36-6" value="page data" style="text;html=1;strokeColor=none;fillColor=none;align=center;verticalAlign=middle;whiteSpace=wrap;rounded=0;fontSize=20;fontFamily=Architects Daughter;" vertex="1" parent="1">
          <mxGeometry x="457" y="1727" width="146.5" height="30" as="geometry" />
        </mxCell>
        <mxCell id="yM2souLgiS-9Ete5BA36-7" value="node1" style="rounded=0;whiteSpace=wrap;html=1;sketch=1;hachureGap=4;jiggle=2;curveFitting=1;fontFamily=Helvetica;fontSize=20;fillColor=#dae8fc;strokeColor=#6c8ebf;" vertex="1" parent="1">
          <mxGeometry x="59" y="1928" width="99" height="49" as="geometry" />
        </mxCell>
        <mxCell id="yM2souLgiS-9Ete5BA36-11" value="node2" style="rounded=0;whiteSpace=wrap;html=1;sketch=1;hachureGap=4;jiggle=2;curveFitting=1;fontFamily=Helvetica;fontSize=20;fillColor=#dae8fc;strokeColor=#6c8ebf;" vertex="1" parent="1">
          <mxGeometry x="158" y="1928" width="99" height="49" as="geometry" />
        </mxCell>
        <mxCell id="yM2souLgiS-9Ete5BA36-12" value="flag" style="rounded=0;whiteSpace=wrap;html=1;sketch=1;hachureGap=4;jiggle=2;curveFitting=1;fontFamily=Helvetica;fontSize=20;fillColor=#dae8fc;strokeColor=#6c8ebf;" vertex="1" parent="1">
          <mxGeometry x="153.25" y="2053" width="70.99" height="49" as="geometry" />
        </mxCell>
        <mxCell id="yM2souLgiS-9Ete5BA36-31" style="edgeStyle=orthogonalEdgeStyle;rounded=0;sketch=1;hachureGap=4;jiggle=2;curveFitting=1;orthogonalLoop=1;jettySize=auto;html=1;exitX=0.5;exitY=1;exitDx=0;exitDy=0;entryX=0.5;entryY=1;entryDx=0;entryDy=0;fontFamily=Architects Daughter;fontSource=https%3A%2F%2Ffonts.googleapis.com%2Fcss%3Ffamily%3DArchitects%2BDaughter;fontSize=16;" edge="1" parent="1" source="yM2souLgiS-9Ete5BA36-15" target="yM2souLgiS-9Ete5BA36-27">
          <mxGeometry relative="1" as="geometry" />
        </mxCell>
        <mxCell id="yM2souLgiS-9Ete5BA36-15" value="mndata" style="rounded=0;whiteSpace=wrap;html=1;sketch=1;hachureGap=4;jiggle=2;curveFitting=1;fontFamily=Helvetica;fontSize=20;fillColor=#dae8fc;strokeColor=#6c8ebf;" vertex="1" parent="1">
          <mxGeometry x="290.75" y="2053" width="157.5" height="49" as="geometry" />
        </mxCell>
        <mxCell id="yM2souLgiS-9Ete5BA36-16" value="mn_hi" style="rounded=0;whiteSpace=wrap;html=1;sketch=1;hachureGap=4;jiggle=2;curveFitting=1;fontFamily=Helvetica;fontSize=20;fillColor=#dae8fc;strokeColor=#6c8ebf;" vertex="1" parent="1">
          <mxGeometry x="82.26" y="2053" width="70.99" height="49" as="geometry" />
        </mxCell>
        <mxCell id="yM2souLgiS-9Ete5BA36-17" value="mn_lo" style="rounded=0;whiteSpace=wrap;html=1;sketch=1;hachureGap=4;jiggle=2;curveFitting=1;fontFamily=Helvetica;fontSize=20;fillColor=#dae8fc;strokeColor=#6c8ebf;" vertex="1" parent="1">
          <mxGeometry x="11.270000000000021" y="2053" width="70.99" height="49" as="geometry" />
        </mxCell>
        <mxCell id="yM2souLgiS-9Ete5BA36-18" value="key size" style="rounded=0;whiteSpace=wrap;html=1;sketch=1;hachureGap=4;jiggle=2;curveFitting=1;fontFamily=Helvetica;fontSize=20;fillColor=#dae8fc;strokeColor=#6c8ebf;" vertex="1" parent="1">
          <mxGeometry x="219.76" y="2053" width="70.99" height="49" as="geometry" />
        </mxCell>
        <mxCell id="yM2souLgiS-9Ete5BA36-19" value="node3" style="rounded=0;whiteSpace=wrap;html=1;sketch=1;hachureGap=4;jiggle=2;curveFitting=1;fontFamily=Helvetica;fontSize=20;fillColor=#dae8fc;strokeColor=#6c8ebf;" vertex="1" parent="1">
          <mxGeometry x="258.5" y="1928" width="99" height="49" as="geometry" />
        </mxCell>
        <mxCell id="yM2souLgiS-9Ete5BA36-21" value="" style="shape=curlyBracket;whiteSpace=wrap;html=1;rounded=1;labelPosition=left;verticalLabelPosition=middle;align=right;verticalAlign=middle;sketch=1;hachureGap=4;jiggle=2;curveFitting=1;fontFamily=Architects Daughter;fontSource=https%3A%2F%2Ffonts.googleapis.com%2Fcss%3Ffamily%3DArchitects%2BDaughter;fontSize=20;rotation=90;size=0.5;" vertex="1" parent="1">
          <mxGeometry x="391" y="1502" width="57.25" height="736.5" as="geometry" />
        </mxCell>
        <mxCell id="yM2souLgiS-9Ete5BA36-22" value="" style="shape=curlyBracket;whiteSpace=wrap;html=1;rounded=1;labelPosition=left;verticalLabelPosition=middle;align=right;verticalAlign=middle;sketch=1;hachureGap=4;jiggle=2;curveFitting=1;fontFamily=Architects Daughter;fontSource=https%3A%2F%2Ffonts.googleapis.com%2Fcss%3Ffamily%3DArchitects%2BDaughter;fontSize=20;rotation=90;size=0.5;" vertex="1" parent="1">
          <mxGeometry x="202.75" y="1790" width="57.25" height="434" as="geometry" />
        </mxCell>
        <mxCell id="yM2souLgiS-9Ete5BA36-25" value="key1" style="rounded=0;whiteSpace=wrap;html=1;sketch=1;hachureGap=4;jiggle=2;curveFitting=1;fontFamily=Helvetica;fontSize=20;fillColor=#d5e8d4;strokeColor=#82b366;" vertex="1" parent="1">
          <mxGeometry x="360" y="1928" width="99" height="49" as="geometry" />
        </mxCell>
        <mxCell id="yM2souLgiS-9Ete5BA36-26" value="val1" style="rounded=0;whiteSpace=wrap;html=1;sketch=1;hachureGap=4;jiggle=2;curveFitting=1;fontFamily=Helvetica;fontSize=20;fillColor=#d5e8d4;strokeColor=#82b366;" vertex="1" parent="1">
          <mxGeometry x="459" y="1928" width="99" height="49" as="geometry" />
        </mxCell>
        <mxCell id="yM2souLgiS-9Ete5BA36-27" value="key2" style="rounded=0;whiteSpace=wrap;html=1;sketch=1;hachureGap=4;jiggle=2;curveFitting=1;fontFamily=Helvetica;fontSize=20;fillColor=#d5e8d4;strokeColor=#82b366;" vertex="1" parent="1">
          <mxGeometry x="558" y="1928" width="99" height="49" as="geometry" />
        </mxCell>
        <mxCell id="yM2souLgiS-9Ete5BA36-28" value="val2" style="rounded=0;whiteSpace=wrap;html=1;sketch=1;hachureGap=4;jiggle=2;curveFitting=1;fontFamily=Helvetica;fontSize=20;fillColor=#d5e8d4;strokeColor=#82b366;" vertex="1" parent="1">
          <mxGeometry x="657" y="1928" width="99" height="49" as="geometry" />
        </mxCell>
        <mxCell id="yM2souLgiS-9Ete5BA36-29" value="..." style="rounded=0;whiteSpace=wrap;html=1;sketch=1;hachureGap=4;jiggle=2;curveFitting=1;fontFamily=Helvetica;fontSize=20;fillColor=#d5e8d4;strokeColor=#82b366;" vertex="1" parent="1">
          <mxGeometry x="759" y="1928" width="56" height="49" as="geometry" />
        </mxCell>
        <mxCell id="yM2souLgiS-9Ete5BA36-32" value="&lt;span style=&quot;font-size: 16px;&quot;&gt;pos&lt;/span&gt;" style="rounded=1;whiteSpace=wrap;html=1;fillColor=none;fontColor=#333333;strokeColor=none;" vertex="1" parent="1">
          <mxGeometry x="593" y="2046" width="86.5" height="34" as="geometry" />
        </mxCell>
      </root>
    </mxGraphModel>
  </diagram>
</mxfile>
